<?xml version="1.0" encoding="utf-8"?>
<svg id="Sphere_wireframe_10deg_6r_black_opaque"
   baseProfile="full" version="1.1"
   xmlns="http://www.w3.org/2000/svg"
   xmlns:xlink="http://www.w3.org/1999/xlink"
   width="800" height="800">

  <title>Sphere wireframe black opaque</title>

  <desc>
     Sphere wireframe
     depicted with perspective projection

     viewer distance from center: 6r
     line distancd: 10째
     line width: 2째
     axial tilt: 37.5째
     rotation: 7.5째
     base color: #000000

     plotted with several adapted cubic bezier-curves
     The plotcurves were calculated by some fancy python code. The bezier-curve
     controlpoints are placed on tangents of the function-curve. They are
     furthermore positioned in a way to minimize the average quadratic distance
     between the bezier-curve and the function. This gives an accuracy, so that
     the deviation is in no point greater than 0.00001.

     about: http://commons.wikimedia.org/wiki/Image:Sphere_wireframe_10deg_6r_black_opaque.svg
     source: http://commons.wikimedia.org/
     rights: GNU Free Documentation license,
             Creative Commons Attribution ShareAlike license
  </desc>

  <defs>
    <radialGradient cx="-0.1" cy="0.1" r="1.2" fx="-0.3" fy="0.6" id="LightSpot_front" gradientUnits="userSpaceOnUse">
      <stop style="stop-color:#949494; stop-opacity:1" offset="0" />
      <stop style="stop-color:#686868; stop-opacity:1" offset="0.1" />
      <stop style="stop-color:#3d3d3d; stop-opacity:1" offset="0.3" />
      <stop style="stop-color:#000000; stop-opacity:1" offset="1" />
    </radialGradient>

    <radialGradient cx="-0.1" cy="0.1" r="1.2" fx="-0.3" fy="0.6" id="LightSpot_back" gradientUnits="userSpaceOnUse">
      <stop style="stop-color:#ffffff; stop-opacity:1" offset="0" />
      <stop style="stop-color:#fafafa; stop-opacity:1" offset="0.1" />
      <stop style="stop-color:#f5f5f5; stop-opacity:1" offset="0.6" />
      <stop style="stop-color:#dddddd; stop-opacity:1" offset="1" />
    </radialGradient>
  </defs>

  <g id="sphere" style="fill:#000000; stroke:none" transform="translate(400, 400) scale(400, -400)">
    <g id="back">
      <circle cx="0" cy="0" r="1" fill="url(#LightSpot_back)" />
    </g>
    <g id="front" style="opacity:1; fill:url(#LightSpot_front)">
      <path d="M 0.28026,-0.95993
C 0.10142,-1.01214 -0.10142,-1.01214 -0.28026,-0.95993
C -0.29721,-0.95497 -0.31493,-0.94932 -0.33326,-0.94283
C -0.23044,-0.97918 -0.11609,-0.99816 -0.00000,-0.99816
C 0.11609,-0.99816 0.23044,-0.97918 0.33326,-0.94283
C 0.31492,-0.94932 0.29721,-0.95498 0.28026,-0.95993 Z" id="parallel_-40.0_front"/>
      <path d="M 0.62763,-0.77851
C 0.47327,-0.90296 0.24301,-0.97510 -0.00000,-0.97510
C -0.24301,-0.97510 -0.47327,-0.90296 -0.62763,-0.77851
C -0.63547,-0.77219 -0.64322,-0.76575 -0.65087,-0.75919
C -0.54877,-0.84672 -0.40881,-0.91160 -0.24961,-0.94517
C -0.08723,-0.97941 0.08723,-0.97941 0.24961,-0.94517
C 0.40881,-0.91160 0.54877,-0.84672 0.65087,-0.75919
C 0.64322,-0.76575 0.63547,-0.77219 0.62763,-0.77851 Z" id="parallel_-30.0_front"/>
      <path d="M 0.81647,-0.57739
C 0.72146,-0.71174 0.55130,-0.81768 0.34043,-0.87371
C 0.12228,-0.93168 -0.12227,-0.93168 -0.34043,-0.87372
C -0.55130,-0.81768 -0.72146,-0.71174 -0.81647,-0.57739
C -0.82137,-0.57046 -0.82618,-0.56347 -0.83090,-0.55642
C -0.73786,-0.69536 -0.56535,-0.80563 -0.34950,-0.86408
C -0.12590,-0.92464 0.12590,-0.92464 0.34950,-0.86408
C 0.56535,-0.80563 0.73786,-0.69536 0.83090,-0.55642
C 0.82618,-0.56347 0.82137,-0.57046 0.81647,-0.57739 Z" id="parallel_-20.0_front"/>
      <path d="M 0.93192,-0.36266
C 0.86411,-0.53692 0.67789,-0.68333 0.42320,-0.76250
C 0.15632,-0.84546 -0.15633,-0.84546 -0.42322,-0.76250
C -0.67790,-0.68333 -0.86411,-0.53692 -0.93192,-0.36266
C -0.93482,-0.35522 -0.93756,-0.34790 -0.94018,-0.34069
C -0.89266,-0.47181 -0.77764,-0.58932 -0.61303,-0.67484
C -0.44040,-0.76454 -0.22369,-0.81360 -0.00000,-0.81360
C 0.22368,-0.81360 0.44039,-0.76454 0.61303,-0.67485
C 0.77764,-0.58933 0.89266,-0.47181 0.94018,-0.34069
C 0.93756,-0.34790 0.93482,-0.35522 0.93192,-0.36266 Z" id="parallel_-10.0_front"/>
      <path d="M 0.99003,-0.14086
C 0.96894,-0.28907 0.86068,-0.42750 0.68547,-0.53016
C 0.50070,-0.63842 0.25526,-0.69883 0.00000,-0.69883
C -0.25526,-0.69883 -0.50071,-0.63842 -0.68547,-0.53016
C -0.86068,-0.42750 -0.96894,-0.28907 -0.99003,-0.14086
C -0.99111,-0.13329 -0.99208,-0.12585 -0.99295,-0.11855
C -0.97509,-0.26815 -0.86802,-0.40853 -0.69211,-0.51286
C -0.50648,-0.62294 -0.25831,-0.68451 -0.00000,-0.68451
C 0.25831,-0.68451 0.50648,-0.62294 0.69211,-0.51285
C 0.86802,-0.40853 0.97509,-0.26815 0.99295,-0.11855
C 0.99208,-0.12585 0.99111,-0.13329 0.99003,-0.14086 Z" id="parallel_0.0_front"/>
      <path d="M 0.99669,0.08129
C 1.00957,-0.07657 0.91662,-0.23106 0.73825,-0.34804
C 0.54919,-0.47204 0.28113,-0.54278 -0.00001,-0.54278
C -0.28114,-0.54278 -0.54920,-0.47204 -0.73826,-0.34804
C -0.91663,-0.23105 -1.00956,-0.07657 -0.99669,0.08129
C -0.99610,0.08848 -0.99543,0.09580 -0.99465,0.10326
C -1.01109,-0.05503 -0.92007,-0.21070 -0.74187,-0.32882
C -0.55289,-0.45409 -0.28315,-0.52571 0.00000,-0.52571
C 0.28315,-0.52571 0.55289,-0.45409 0.74187,-0.32882
C 0.92007,-0.21070 1.01109,-0.05504 0.99465,0.10326
C 0.99543,0.09580 0.99610,0.08848 0.99669,0.08129 Z" id="parallel_10.0_front"/>
      <path d="M 0.95487,0.29702
C 0.99355,0.17268 0.95828,0.04442 0.85477,-0.06690
C 0.74437,-0.18564 0.56348,-0.27744 0.34528,-0.32541
C 0.12289,-0.37431 -0.12289,-0.37431 -0.34529,-0.32541
C -0.56348,-0.27744 -0.74437,-0.18564 -0.85478,-0.06690
C -0.95828,0.04443 -0.99355,0.17268 -0.95487,0.29702
C -0.95265,0.30417 -0.95039,0.31116 -0.94810,0.31799
C -0.98964,0.19411 -0.95669,0.06576 -0.85463,-0.04592
C -0.74572,-0.16509 -0.56528,-0.25748 -0.34685,-0.30586
C -0.12361,-0.35530 0.12360,-0.35530 0.34685,-0.30586
C 0.56528,-0.25748 0.74572,-0.16510 0.85463,-0.04592
C 0.95669,0.06576 0.98964,0.19411 0.94810,0.31799
C 0.95047,0.31089 0.95273,0.30390 0.95487,0.29702 Z" id="parallel_20.0_front"/>
      <path d="M 0.86615,0.49979
C 0.93400,0.38220 0.92284,0.25482 0.83474,0.14149
C 0.74086,0.02072 0.56669,-0.07502 0.34890,-0.12551
C 0.12555,-0.17730 -0.12554,-0.17730 -0.34889,-0.12552
C -0.56669,-0.07502 -0.74086,0.02072 -0.83474,0.14149
C -0.92284,0.25482 -0.93400,0.38220 -0.86615,0.49979
C -0.86248,0.50615 -0.85867,0.51259 -0.85471,0.51911
C -0.92551,0.40254 -0.91696,0.27554 -0.83068,0.16224
C -0.73879,0.04156 -0.56574,-0.05437 -0.34847,-0.10501
C -0.12554,-0.15697 0.12553,-0.15697 0.34846,-0.10501
C 0.56573,-0.05437 0.73879,0.04156 0.83068,0.16224
C 0.91696,0.27554 0.92551,0.40254 0.85471,0.51911
C 0.85852,0.51284 0.86234,0.50640 0.86615,0.49979 Z" id="parallel_30.0_front"/>
      <path d="M 0.73002,0.68343
C 0.82762,0.57918 0.84496,0.45827 0.77826,0.34714
C 0.70757,0.22933 0.54872,0.13290 0.34032,0.08137
C 0.12422,0.02793 -0.12421,0.02793 -0.34031,0.08137
C -0.54872,0.13290 -0.70757,0.22933 -0.77826,0.34714
C -0.84496,0.45827 -0.82762,0.57917 -0.73002,0.68343
C -0.72464,0.68917 -0.71918,0.69487 -0.71363,0.70052
C -0.81427,0.59800 -0.83479,0.47805 -0.77066,0.36735
C -0.70270,0.25004 -0.54583,0.15365 -0.33877,0.10207
C -0.12386,0.04853 0.12385,0.04852 0.33876,0.10206
C 0.54582,0.15365 0.70269,0.25004 0.77066,0.36735
C 0.83479,0.47805 0.81427,0.59799 0.71363,0.70052
C 0.71916,0.69489 0.72462,0.68919 0.73002,0.68343 Z" id="parallel_40.0_front"/>
      <path d="M 0.53891,0.84236
C 0.66940,0.75888 0.72286,0.64942 0.68505,0.54335
C 0.64549,0.43234 0.51032,0.33711 0.31879,0.28543
C 0.11874,0.23144 -0.11874,0.23144 -0.31880,0.28543
C -0.51032,0.33711 -0.64549,0.43235 -0.68505,0.54335
C -0.72286,0.64942 -0.66940,0.75888 -0.53891,0.84236
C -0.53127,0.84725 -0.52357,0.85203 -0.51580,0.85671
C -0.62633,0.79016 -0.68593,0.70461 -0.68322,0.61650
C -0.68039,0.52488 -0.61040,0.43729 -0.48765,0.37187
C -0.35918,0.30340 -0.18344,0.26481 0.00000,0.26481
C 0.18344,0.26481 0.35918,0.30340 0.48765,0.37187
C 0.61040,0.43729 0.68039,0.52488 0.68322,0.61650
C 0.68593,0.70461 0.62633,0.79016 0.51580,0.85671
C 0.52357,0.85203 0.53127,0.84725 0.53891,0.84236 Z" id="parallel_50.0_front"/>
      <path d="M 0.23596,0.97176
C 0.38537,0.93548 0.49485,0.86676 0.53412,0.78469
C 0.57214,0.70524 0.54056,0.62125 0.44757,0.55466
C 0.34440,0.48077 0.17769,0.43688 0.00001,0.43688
C -0.17768,0.43688 -0.34439,0.48077 -0.44757,0.55465
C -0.54056,0.62125 -0.57214,0.70524 -0.53412,0.78469
C -0.49485,0.86676 -0.38537,0.93548 -0.23596,0.97176
C -0.21955,0.97575 -0.20223,0.97951 -0.18404,0.98292
C -0.34090,0.95355 -0.46171,0.88842 -0.51057,0.80700
C -0.55742,0.72890 -0.53305,0.64418 -0.44413,0.57623
C -0.34512,0.50057 -0.17847,0.45508 0.00000,0.45508
C 0.17848,0.45508 0.34512,0.50057 0.44413,0.57623
C 0.53305,0.64418 0.55742,0.72890 0.51057,0.80699
C 0.46171,0.88842 0.34090,0.95355 0.18404,0.98292
C 0.20063,0.97981 0.21797,0.97613 0.23596,0.97176 Z" id="parallel_60.0_front"/>
      <path d="M 0.01583,0.99107
C 0.13457,0.98860 0.24425,0.95860 0.31257,0.90992
C 0.37691,0.86408 0.39789,0.80642 0.37001,0.75217
C 0.34128,0.69628 0.26369,0.64984 0.15881,0.62583
C 0.04748,0.60035 -0.08152,0.60313 -0.18807,0.63330
C -0.28789,0.66157 -0.35705,0.71080 -0.37652,0.76736
C -0.39545,0.82235 -0.36551,0.87875 -0.29450,0.92178
C -0.21840,0.96790 -0.10356,0.99355 0.01583,0.99107 Z
M 0.01514,0.98852
C -0.09873,0.99088 -0.20824,0.96647 -0.28083,0.92257
C -0.34863,0.88157 -0.37718,0.82780 -0.35904,0.77541
C -0.34042,0.72160 -0.27449,0.67478 -0.17937,0.64789
C -0.07777,0.61916 0.04524,0.61650 0.15142,0.64076
C 0.25135,0.66359 0.32532,0.70774 0.35279,0.76090
C 0.37950,0.81259 0.35953,0.86755 0.29812,0.91124
C 0.23297,0.95759 0.12838,0.98616 0.01514,0.98852 Z" id="parallel_70.0_front"/>
      <path d="M 0.00848,0.95037
C 0.08053,0.94886 0.14531,0.92825 0.17798,0.89650
C 0.20879,0.86655 0.20666,0.83090 0.17233,0.80190
C 0.13527,0.77059 0.06641,0.75183 -0.00699,0.75310
C -0.08102,0.75438 -0.14749,0.77582 -0.17972,0.80874
C -0.20936,0.83901 -0.20579,0.87466 -0.17023,0.90334
C -0.13237,0.93388 -0.06396,0.95189 0.00848,0.95037 Z
M 0.00770,0.94442
C -0.05795,0.94580 -0.11994,0.92949 -0.15424,0.90183
C -0.18647,0.87585 -0.18966,0.84354 -0.16272,0.81613
C -0.13347,0.78637 -0.07327,0.76700 -0.00625,0.76586
C 0.06012,0.76473 0.12239,0.78165 0.15599,0.80991
C 0.18720,0.83617 0.18919,0.86847 0.16128,0.89562
C 0.13170,0.92438 0.07300,0.94305 0.00770,0.94442 Z" id="parallel_80.0_front"/>
      <path d="M 0.01186,0.99993
C -0.00054,1.00008 -0.01668,0.82825 -0.03100,0.54301
C -0.04755,0.21336 -0.05882,-0.21069 -0.05980,-0.54073
C -0.06065,-0.82624 -0.05366,-0.99864 -0.04127,-0.99915
C -0.03537,-0.99939 -0.02947,-0.99958 -0.02357,-0.99972
C -0.03497,-0.99945 -0.04104,-0.82707 -0.03965,-0.54139
C -0.03804,-0.21133 -0.02677,0.21282 -0.01084,0.54255
C 0.00294,0.82801 0.01816,0.99990 0.02957,0.99956
C 0.02365,0.99974 0.01774,0.99986 0.01186,0.99993 Z" id="meridian_170_front"/>
      <path d="M 0.09555,0.99542
C 0.05357,0.99945 0.00150,0.91765 -0.05115,0.76469
C -0.11409,0.58181 -0.17225,0.31355 -0.21073,0.02847
C -0.24920,-0.25661 -0.26424,-0.53070 -0.25203,-0.72373
C -0.24182,-0.88520 -0.21329,-0.97790 -0.17175,-0.98514
C -0.16585,-0.98617 -0.15994,-0.98715 -0.15401,-0.98807
C -0.19504,-0.98167 -0.22308,-0.88961 -0.23293,-0.72847
C -0.24473,-0.53538 -0.22937,-0.26042 -0.19075,0.02571
C -0.15214,0.31184 -0.09406,0.58105 -0.03150,0.76412
C 0.02072,0.91691 0.07217,0.99826 0.11342,0.99355
C 0.10747,0.99423 0.10151,0.99485 0.09555,0.99542 Z" id="meridian_160_front"/>
      <path d="M 0.18278,0.98315
C 0.10850,0.99696 0.01538,0.92337 -0.07894,0.77610
C -0.18636,0.60839 -0.28621,0.35944 -0.35432,0.08935
C -0.42242,-0.18074 -0.45255,-0.44727 -0.43750,-0.64586
C -0.42429,-0.82025 -0.37720,-0.92921 -0.30525,-0.95227
C -0.29944,-0.95413 -0.29352,-0.95598 -0.28748,-0.95779
C -0.35939,-0.93620 -0.40646,-0.82815 -0.41965,-0.65400
C -0.43471,-0.45511 -0.40431,-0.18710 -0.33578,0.08466
C -0.26725,0.35642 -0.16695,0.60680 -0.05938,0.77478
C 0.03481,0.92186 0.12749,0.99468 0.20104,0.97958
C 0.19507,0.98081 0.18898,0.98200 0.18278,0.98315 Z" id="meridian_150_front"/>
      <path d="M 0.27675,0.96094
C 0.17453,0.99038 0.04461,0.93403 -0.08818,0.80253
C -0.23426,0.65786 -0.37194,0.43400 -0.46962,0.18212
C -0.56730,-0.06975 -0.61656,-0.32789 -0.60622,-0.53323
C -0.59681,-0.71987 -0.53886,-0.84909 -0.44352,-0.89627
C -0.43755,-0.89922 -0.43165,-0.90206 -0.42584,-0.90480
C -0.52238,-0.85936 -0.58112,-0.73015 -0.59056,-0.54217
C -0.60088,-0.33643 -0.55131,-0.07721 -0.45320,0.17577
C -0.35509,0.42875 -0.21692,0.65360 -0.07058,0.79858
C 0.06313,0.93104 0.19363,0.98686 0.29556,0.95532
C 0.28942,0.95722 0.28315,0.95910 0.27675,0.96094 Z" id="meridian_140_front"/>
      <path d="M 0.38089,0.92462
C 0.25775,0.97535 0.09791,0.94444 -0.06819,0.83769
C -0.24572,0.72360 -0.41664,0.53170 -0.54398,0.30344
C -0.67131,0.07517 -0.74479,-0.17107 -0.74860,-0.38207
C -0.75218,-0.57947 -0.69449,-0.73172 -0.58664,-0.80985
C -0.58105,-0.81390 -0.57531,-0.81796 -0.56943,-0.82204
C -0.67936,-0.74589 -0.73865,-0.59391 -0.73574,-0.39542
C -0.73264,-0.18327 -0.65873,0.06530 -0.53018,0.29575
C -0.40162,0.52621 -0.22895,0.71967 -0.05006,0.83377
C 0.11730,0.94052 0.27777,0.96991 0.40031,0.91638
C 0.39375,0.91925 0.38728,0.92199 0.38089,0.92462 Z" id="meridian_130_front"/>
      <path d="M 0.49846,0.86691
C 0.36482,0.94375 0.18566,0.94642 -0.00567,0.87434
C -0.20673,0.79859 -0.40644,0.64588 -0.56391,0.44739
C -0.72138,0.24891 -0.82468,0.01970 -0.85272,-0.19333
C -0.87939,-0.39604 -0.83605,-0.56991 -0.73082,-0.68257
C -0.72549,-0.68828 -0.72019,-0.69382 -0.71493,-0.69919
C -0.82350,-0.58818 -0.86933,-0.41392 -0.84362,-0.20945
C -0.81659,0.00554 -0.71252,0.23778 -0.55307,0.43876
C -0.39361,0.63975 -0.19114,0.79392 0.01208,0.86914
C 0.20534,0.94068 0.38546,0.93570 0.51827,0.85522
C 0.51158,0.85927 0.50498,0.86317 0.49846,0.86691 Z" id="meridian_120_front"/>
      <path d="M 0.63071,0.77602
C 0.49911,0.88297 0.31285,0.92578 0.10567,0.89660
C -0.10816,0.86649 -0.32938,0.76181 -0.51542,0.60272
C -0.70145,0.44364 -0.83920,0.24135 -0.90214,0.03479
C -0.96312,-0.16534 -0.94975,-0.35599 -0.86452,-0.50260
C -0.86029,-0.50988 -0.85596,-0.51711 -0.85154,-0.52428
C -0.94141,-0.37832 -0.95785,-0.18606 -0.89775,0.01681
C -0.83569,0.22627 -0.69647,0.43206 -0.50758,0.59358
C -0.31869,0.75511 -0.09378,0.86068 0.12277,0.88947
C 0.33250,0.91736 0.51988,0.87127 0.65012,0.75983
C 0.64372,0.76531 0.63725,0.77070 0.63071,0.77602 Z" id="meridian_110_front"/>
      <path d="M 0.77214,0.63545
C 0.65874,0.77325 0.48208,0.86084 0.27297,0.88289
C 0.05845,0.90551 -0.17602,0.85767 -0.38749,0.74814
C -0.59896,0.63861 -0.77332,0.47471 -0.87861,0.28644
C -0.98125,0.10293 -1.01163,-0.09190 -0.96452,-0.26403
C -0.96209,-0.27290 -0.95953,-0.28174 -0.95686,-0.29055
C -1.00943,-0.11743 -0.98212,0.08048 -0.87980,0.26761
C -0.77479,0.45966 -0.59793,0.62725 -0.38263,0.73876
C -0.16733,0.85028 0.07160,0.89803 0.28905,0.87299
C 0.50093,0.84860 0.67832,0.75671 0.78939,0.61389
C 0.78374,0.62116 0.77799,0.62834 0.77214,0.63545 Z" id="meridian_100_front"/>
      <path d="M 0.90274,0.43018
C 0.82421,0.59498 0.67462,0.72712 0.47930,0.80415
C 0.27951,0.88295 0.04464,0.89907 -0.18375,0.84968
C -0.41213,0.80029 -0.61936,0.68856 -0.76874,0.53425
C -0.91478,0.38340 -0.99641,0.20125 -0.99982,0.01872
C -1.00001,0.00894 -1.00005,-0.00084 -0.99994,-0.01063
C -1.00191,0.17483 -0.92258,0.36138 -0.77580,0.51633
C -0.62559,0.67489 -0.41470,0.78987 -0.18172,0.84025
C 0.05127,0.89064 0.29083,0.87307 0.49312,0.79075
C 0.69082,0.71030 0.84014,0.57320 0.91498,0.40350
C 0.91103,0.41245 0.90695,0.42135 0.90274,0.43018 Z" id="meridian_90_front"/>
      <path d="M 0.98645,0.16409
C 0.95637,0.34488 0.84955,0.51394 0.68395,0.64274
C 0.51466,0.77442 0.29465,0.85571 0.06257,0.87236
C -0.16950,0.88900 -0.39886,0.83994 -0.58522,0.73377
C -0.76751,0.62992 -0.89736,0.47784 -0.95293,0.30318
C -0.95594,0.29373 -0.95881,0.28423 -0.96153,0.27470
C -0.91036,0.45382 -0.78146,0.61092 -0.59724,0.71859
C -0.40884,0.82871 -0.17497,0.87992 0.06188,0.86293
C 0.29874,0.84595 0.52291,0.76189 0.69367,0.62601
C 0.86064,0.49315 0.96580,0.31926 0.99089,0.13467
C 0.98956,0.14449 0.98807,0.15430 0.98645,0.16409 Z" id="meridian_80_front"/>
      <path d="M 0.99202,-0.12609
C 1.01484,0.05347 0.95918,0.24425 0.83453,0.41347
C 0.70688,0.58677 0.51516,0.72624 0.29383,0.80684
C 0.07250,0.88744 -0.16401,0.90392 -0.37321,0.85329
C -0.57748,0.80386 -0.74279,0.69356 -0.84079,0.54137
C -0.84595,0.53335 -0.85100,0.52526 -0.85593,0.51710
C -0.76092,0.67436 -0.59530,0.78936 -0.38836,0.84170
C -0.17636,0.89532 0.06480,0.87958 0.29040,0.79743
C 0.51600,0.71527 0.71080,0.57224 0.83868,0.39485
C 0.96350,0.22169 1.01638,0.02711 0.98801,-0.15441
C 0.98948,-0.14499 0.99082,-0.13555 0.99202,-0.12609 Z" id="meridian_70_front"/>
      <path d="M 0.92064,-0.39040
C 0.98886,-0.22954 0.98180,-0.03492 0.90067,0.15882
C 0.81724,0.35802 0.66116,0.54281 0.46170,0.67852
C 0.26225,0.81424 0.03307,0.89160 -0.18286,0.89609
C -0.39287,0.90045 -0.57650,0.83557 -0.70110,0.71306
C -0.70739,0.70688 -0.71360,0.70061 -0.71972,0.69426
C -0.59692,0.82157 -0.41231,0.89024 -0.19959,0.88769
C 0.01924,0.88506 0.25255,0.80724 0.45536,0.66924
C 0.65818,0.53124 0.81621,0.34278 0.89899,0.14019
C 0.97945,-0.05674 0.98333,-0.25367 0.90999,-0.41463
C 0.91365,-0.40660 0.91720,-0.39853 0.92064,-0.39040 Z" id="meridian_60_front"/>
      <path d="M 0.80013,-0.59982
C 0.89785,-0.46948 0.92810,-0.28577 0.88524,-0.08258
C 0.84078,0.12824 0.72080,0.34496 0.54905,0.52468
C 0.37731,0.70441 0.16627,0.83410 -0.04231,0.88809
C -0.24334,0.94012 -0.42822,0.91824 -0.56286,0.82655
C -0.56950,0.82203 -0.57608,0.81743 -0.58261,0.81275
C -0.44902,0.90851 -0.26305,0.93318 -0.05975,0.88202
C 0.15131,0.82891 0.36558,0.69798 0.53972,0.51574
C 0.71386,0.33350 0.83492,0.11350 0.87839,-0.09975
C 0.92027,-0.30517 0.88718,-0.48982 0.78545,-0.61893
C 0.79044,-0.61259 0.79534,-0.60622 0.80013,-0.59982 Z" id="meridian_50_front"/>
      <path d="M 0.65908,-0.75207
C 0.76771,-0.65688 0.82011,-0.49342 0.80631,-0.29252
C 0.79171,-0.07980 0.70400,0.15883 0.56158,0.37318
C 0.41918,0.58751 0.23321,0.76081 0.04280,0.85669
C -0.13703,0.94725 -0.30800,0.96229 -0.43784,0.89905
C -0.44455,0.89578 -0.45111,0.89250 -0.45750,0.88921
C -0.32837,0.95564 -0.15665,0.94252 0.02475,0.85225
C 0.21697,0.75660 0.40526,0.58168 0.54928,0.36491
C 0.69329,0.14813 0.78155,-0.09323 0.79523,-0.30751
C 0.80813,-0.50971 0.75367,-0.67310 0.64239,-0.76638
C 0.64811,-0.76158 0.65367,-0.75681 0.65908,-0.75207 Z" id="meridian_40_front"/>
      <path d="M 0.51458,-0.85744
C 0.61783,-0.79548 0.67725,-0.65483 0.68139,-0.46234
C 0.68587,-0.25392 0.62519,-0.00124 0.51273,0.23950
C 0.40028,0.48025 0.24544,0.68895 0.08272,0.81928
C -0.06755,0.93964 -0.21355,0.98432 -0.32733,0.94491
C -0.33361,0.94273 -0.33998,0.94046 -0.34645,0.93807
C -0.23312,0.97992 -0.08655,0.93629 0.06479,0.81552
C 0.22835,0.68500 0.38431,0.47490 0.49758,0.23242
C 0.61085,-0.01006 0.67187,-0.26450 0.66700,-0.47370
C 0.66250,-0.66726 0.60190,-0.80766 0.49707,-0.86771
C 0.50284,-0.86441 0.50868,-0.86099 0.51458,-0.85744 Z" id="meridian_30_front"/>
      <path d="M 0.37372,-0.92754
C 0.45852,-0.89337 0.51224,-0.77467 0.52452,-0.59396
C 0.53825,-0.39205 0.49913,-0.12954 0.41629,0.13188
C 0.33344,0.39334 0.21421,0.63050 0.08668,0.78766
C -0.02744,0.92831 -0.13972,0.99440 -0.22871,0.97349
C -0.23480,0.97206 -0.24097,0.97055 -0.24723,0.96896
C -0.15891,0.99149 -0.04682,0.92625 0.06747,0.78559
C 0.19539,0.62817 0.31532,0.38956 0.39873,0.12637
C 0.48213,-0.13682 0.52153,-0.40096 0.50763,-0.60333
C 0.49521,-0.78415 0.44116,-0.90205 0.35597,-0.93450
C 0.36181,-0.93227 0.36773,-0.92995 0.37372,-0.92754 Z" id="meridian_20_front"/>
      <path d="M 0.23799,-0.97127
C 0.29527,-0.95723 0.33378,-0.85722 0.34626,-0.68965
C 0.36083,-0.49405 0.33869,-0.22346 0.28528,0.05477
C 0.23186,0.33306 0.15224,0.59265 0.06626,0.76895
C -0.00735,0.91992 -0.08013,0.99853 -0.13853,0.99036
C -0.14453,0.98952 -0.15054,0.98862 -0.15657,0.98767
C -0.09890,0.99681 -0.02665,0.91879 0.04667,0.76795
C 0.13249,0.59141 0.21226,0.33066 0.26593,0.05105
C 0.31960,-0.22855 0.34204,-0.50031 0.32769,-0.69608
C 0.31542,-0.86336 0.27719,-0.96259 0.22023,-0.97545
C 0.22616,-0.97411 0.23208,-0.97272 0.23799,-0.97127 Z" id="meridian_10_front"/>
      <path d="M 0.10627,-0.99434
C 0.14211,-0.99051 0.16182,-0.81616 0.15855,-0.53055
C 0.15476,-0.20015 0.12092,0.22211 0.07204,0.54893
C 0.02978,0.83147 -0.01745,1.00050 -0.05345,0.99857
C -0.05938,0.99825 -0.06530,0.99788 -0.07121,0.99746
C -0.03622,0.99996 0.01015,0.83114 0.05194,0.54845
C 0.10033,0.22109 0.13425,-0.20222 0.13862,-0.53312
C 0.14239,-0.81889 0.12351,-0.99296 0.08856,-0.99607
C 0.09444,-0.99555 0.10035,-0.99497 0.10627,-0.99434 Z" id="meridian_0_front"/>
    </g>
  </g>
</svg>
